<svg width="78" height="48" viewBox="0 0 78 48" fill="none" xmlns="http://www.w3.org/2000/svg">
<path d="M72.775 6.97543H71.5162V22.4745H69.0772V19.0915V17.9113V2.96297L65.4581 0.83873H64.4354V13.4268H54.7582V14.607V18.6194L50.9031 12.404H26.3563L22.5012 18.6194V14.607V13.4268H12.8241V0.83873H11.8013L8.18227 2.96297V17.9113V19.0915V22.4745H5.74332V6.97543H4.48451L0 9.6504V27.9818V29.4767V45.6838H1.80954L2.36027 44.8184V29.4767H3.85511V40.1766H5.27127L5.74332 39.2324V29.4767H8.10359V32.309H9.59843L9.99181 31.6009V29.398H12.1947V45.6052H14.0043L14.4763 44.6611V28.6112L15.6565 26.8017V40.1766H17.0726L17.5447 39.2324V23.9694V22.4745H12.7455V19.0915H18.0167V32.309H19.5116L19.9049 31.5222V18.3834L20.849 16.9672V21.137L20.5343 21.6878V47.1H23.524V24.5988H26.5137V35.1413H28.874V24.5988H47.7561V35.1413H50.1164V24.5988H53.4994V47.0213H56.4891V21.6878L56.1744 21.137V16.9672L57.1185 18.3834V31.5222L57.5119 32.309H59.0067V19.0915H64.278V22.4745H59.4788V23.9694V39.2324L59.9508 40.1766H61.367V26.8017L62.5471 28.6112V44.7397L63.0192 45.6838H64.8287V29.4767H67.0316V31.6796L67.425 32.3877H68.9199V29.5553H71.2801V39.3111L71.7522 40.2552H73.1683V29.4767H74.6632V44.8971L75.2139 45.7625H77.0235V29.4767V27.9818V9.6504L72.775 6.97543ZM10.0705 22.4745V19.0915H11.3293V22.4745H10.0705ZM65.9302 22.4745V19.0915H67.189V22.4745H65.9302Z" fill="black"/>
</svg>
