<svg width="38" height="46" viewBox="0 0 38 46" fill="none" xmlns="http://www.w3.org/2000/svg">
<path d="M0.000488281 0.276245V40.769C0.000488281 42.4028 1.32591 43.729 2.96213 43.729H6.18113V44.4337C6.18113 45.2986 6.88248 46 7.74664 46C8.61079 46 9.31297 45.2978 9.31297 44.4337V43.729H28.2315V44.4337C28.2315 45.2986 28.9328 46 29.7978 46C30.662 46 31.3633 45.2978 31.3633 44.4337V43.729H34.5815C36.2169 43.729 37.5431 42.4036 37.5431 40.769V0.276245H0.000488281ZM6.62513 19.1989C6.62513 19.6897 6.22717 20.086 5.73713 20.086C5.24626 20.086 4.84913 19.6897 4.84913 19.1989V5.84022C4.84913 5.34936 5.24626 4.95304 5.73713 4.95304C6.22717 4.95304 6.62513 5.34936 6.62513 5.84022V19.1989Z" fill="black"/>
</svg>
